<?xml version="1.0" encoding="UTF-8"?>
<svg xmlns="http://www.w3.org/2000/svg" xmlns:xlink="http://www.w3.org/1999/xlink" width="3750" height="3750" viewBox="0 0 3750 3750">
<rect x="-375" y="-375" width="4500" height="4500" fill="rgb(100%, 100%, 100%)" fill-opacity="1"/>
<path fill-rule="evenodd" fill="rgb(0%, 0%, 0%)" fill-opacity="1" d="M 1137.980469 519.941406 C 626.277344 518.261719 173.441406 1038.21875 382.480469 1655.578125 C 622.984375 2266.03125 1289.5 2797.214844 1875 3230.058594 C 2460.5 2797.214844 3127.019531 2266.03125 3367.519531 1655.578125 C 3576.558594 1038.21875 3123.71875 518.261719 2612.019531 519.941406 C 2353.148438 520.800781 2085.929688 660.121094 1875 982.898438 C 1664.070312 660.121094 1396.851562 520.800781 1137.980469 519.941406 Z M 1254.671875 734.46875 C 1472.550781 735.191406 1697.46875 852.449219 1875 1124.128906 C 2052.539062 852.449219 2277.449219 735.191406 2495.328125 734.46875 C 2926.03125 733.050781 3307.179688 1170.691406 3131.230469 1690.308594 C 2928.808594 2204.121094 2367.808594 2651.210938 1875 3015.535156 C 1382.191406 2651.210938 821.195312 2204.121094 618.769531 1690.308594 C 442.820312 1170.691406 823.972656 733.050781 1254.671875 734.46875 Z M 1254.671875 734.46875 "/>
</svg>
