<svg xmlns="http://www.w3.org/2000/svg" width="24" height="24" viewBox="0 0 24 24">
  <path fill-rule="evenodd" d="M13.16 0a92.8 92.8 0 0 1 2.77.03l.433.017.585.025c1.277.058 2.15.261 2.912.558.79.307 1.459.717 2.126 1.384A5.88 5.88 0 0 1 23.37 4.14c.297.763.5 1.635.558 2.912l.025.585.016.433c.02.618.028 1.316.03 2.77l.001.844v1.476a92.77 92.77 0 0 1-.03 2.77l-.017.433-.025.585c-.059 1.277-.261 2.15-.558 2.912a5.88 5.88 0 0 1-1.384 2.126 5.88 5.88 0 0 1-2.126 1.384c-.763.297-1.635.5-2.912.558l-.585.025-.433.016a92.77 92.77 0 0 1-2.77.03h-2.32a92.766 92.766 0 0 1-2.77-.03l-.433-.016-.585-.025c-1.277-.059-2.15-.261-2.912-.558a5.88 5.88 0 0 1-2.126-1.384A5.881 5.881 0 0 1 .63 19.86c-.297-.763-.5-1.635-.558-2.912l-.025-.585-.016-.433A92.8 92.8 0 0 1 0 13.16v-2.32c.002-1.454.01-2.152.03-2.77l.016-.433.025-.585C.13 5.775.333 4.902.63 4.14a5.882 5.882 0 0 1 1.384-2.126A5.882 5.882 0 0 1 4.14.63C4.903.333 5.775.13 7.052.072l.585-.025L8.07.03C8.688.01 9.386.003 10.84 0h2.32Zm-.02 2.163h-2.28c-1.594.002-2.253.011-2.92.036l-.213.008-.576.025c-1.17.053-1.805.249-2.228.413-.56.218-.96.478-1.38.898-.42.42-.68.82-.898 1.38-.164.423-.36 1.058-.413 2.228l-.025.576-.008.212c-.025.668-.034 1.327-.036 2.921v2.28c.002 1.594.011 2.253.036 2.92l.008.213.025.576c.053 1.17.249 1.805.413 2.228.218.56.478.96.898 1.38.42.42.82.68 1.38.898.423.164 1.058.36 2.228.413 1.096.05 1.528.066 3.71.07h2.279c2.181-.004 2.613-.02 3.709-.07 1.17-.053 1.805-.249 2.228-.413.56-.218.96-.478 1.38-.898.42-.42.68-.82.898-1.38.164-.423.36-1.058.413-2.228l.025-.576.008-.212c.025-.668.034-1.327.036-2.921v-2.28c-.002-1.594-.011-2.253-.036-2.92l-.008-.213-.025-.576c-.053-1.17-.249-1.805-.413-2.228a3.717 3.717 0 0 0-.898-1.38c-.42-.42-.82-.68-1.38-.898-.423-.164-1.058-.36-2.228-.413l-.576-.025-.212-.008c-.668-.025-1.327-.034-2.921-.036ZM12 5.838a6.162 6.162 0 1 1 0 12.324 6.162 6.162 0 0 1 0-12.324ZM12 8a4 4 0 1 0 0 8 4 4 0 0 0 0-8Zm6.406-3.846a1.44 1.44 0 1 1 0 2.88 1.44 1.44 0 0 1 0-2.88Z" clip-rule="evenodd"/>
</svg>
